<svg width="89" height="40" viewBox="0 0 89 40" fill="none" xmlns="http://www.w3.org/2000/svg">
    <path fill-rule="evenodd" clip-rule="evenodd"
        d="M32.4742 37.1614C20.0389 36.1821 11.0073 32.4431 9.8295 26.9433C9.3898 24.9083 10.0808 22.8048 11.7159 20.7698C9.75008 20.5446 7.80951 20.1374 5.91929 19.5535C3.08869 22.2759 1.7578 25.1453 2.34669 27.9344C4.25076 36.8187 25.0268 41.4861 48.7688 38.366C54.433 37.6314 60.0286 36.4419 65.5011 34.8091C54.0943 36.6737 43.9321 38.0605 32.4742 37.1595V37.1614ZM47.7854 18.8601C38.265 17.0973 25.6039 19.2127 16.6626 18.8092C11.237 18.5741 5.93695 17.6986 0.931396 13.0469C3.57005 14.1519 6.29873 15.0293 9.0875 15.6695C16.1129 9.4646 27.9594 4.23704 41.8945 1.90041C58.5915 -0.890626 73.8417 1.22664 82.0646 6.6579C74.3128 2.11782 60.8508 0.437317 46.1424 2.9091C32.5783 5.17914 21.1538 10.44 14.8861 16.594C17.2153 16.8109 19.5557 16.8842 21.8939 16.8133C30.9765 16.594 40.2103 15.9555 47.7932 18.864L47.7854 18.8601Z"
        fill="url(#paint0_radial)" />
    <path fill-rule="evenodd" clip-rule="evenodd"
        d="M62.9397 14.9918C57.4807 15.9515 48.8868 15.3835 41.4727 13.8166C50.1667 17.1619 57.3727 17.2951 66.4278 16.1865C74.1109 15.5813 84.4871 14.9918 87.9105 20.8265C87.0173 11.8815 69.2251 14.4551 65.3148 13.4954C63.6483 13.0763 58.9961 4.9715 46.3742 6.31707C37.005 7.31009 29.8107 12.2184 20.8125 15.1935C27.7378 14.9252 34.7299 13.7148 44.268 16.2375C37.7902 13.1037 31.7482 13.7814 27.9577 13.7657C45.8854 5.62763 59.265 7.51182 62.9377 14.9918H62.9397Z"
        fill="#B5190F" />
    <path fill-rule="evenodd" clip-rule="evenodd"
        d="M33.0476 12.8509C37.2268 11.5406 44.8764 9.57415 50.8419 9.97763C54.3124 10.2127 58.6427 11.1195 59.9402 13.9106C51.5839 14.6842 42.197 11.2547 33.0476 12.8509Z"
        fill="#C0C0C0" />
    <path fill-rule="evenodd" clip-rule="evenodd"
        d="M63.3105 18.8091C71.6512 16.8505 82.5201 16.5567 85.5862 20.4074C82.4691 19.195 76.4702 17.4303 63.3105 18.8091Z"
        fill="#B5190F" />
    <path
        d="M19.1047 29.4054H17.0671L16.7747 27.012H16.1975L15.7912 29.4054H13.7537L15.0473 21.7667H19.4423C19.5683 21.7589 19.6941 21.7851 19.8064 21.8427C19.9187 21.9003 20.0133 21.987 20.0803 22.0938C20.2227 22.3605 20.2604 22.6705 20.1863 22.9635L19.7073 25.8231C19.6673 26.1037 19.5558 26.3694 19.3834 26.5948C19.2383 26.7848 19.035 26.9223 18.8044 26.9865L19.1047 29.4054ZM16.9297 22.7108L16.3624 26.0581H17.6286L18.1959 22.7108H16.9297Z"
        fill="#FFFFFF" />
    <path
        d="M20.8242 29.4053C20.6974 29.4132 20.5708 29.387 20.4575 29.3294C20.3443 29.2719 20.2486 29.1851 20.1804 29.0782C20.0354 28.8124 19.9961 28.5019 20.0704 28.2085L20.9557 22.9536C21.0038 22.6282 21.1496 22.325 21.3738 22.0839C21.4682 21.9807 21.5831 21.8983 21.7112 21.842C21.8393 21.7856 21.9778 21.7566 22.1178 21.7568H25.4941L25.3331 22.7107H23.0384L22.6321 25.1041H24.4125L24.2535 26.058H22.4711L22.0648 28.4514H24.3595L24.2005 29.4053H20.8242Z"
        fill="#FFFFFF" />
    <path
        d="M30.3838 28.2086C30.3367 28.5339 30.1916 28.8372 29.9677 29.0782C29.8732 29.1813 29.7582 29.2635 29.6302 29.3199C29.5021 29.3762 29.3637 29.4053 29.2237 29.4053H24.8286L26.1222 21.7667H30.5173C30.6438 21.759 30.7701 21.7852 30.883 21.8427C30.9959 21.9003 31.0913 21.987 31.1592 22.0938C31.3056 22.3591 31.3456 22.6699 31.2711 22.9634L30.3838 28.2086ZM28.0008 22.7108L27.0193 28.4515H28.2952L29.2767 22.7108H28.0008Z"
        fill="#FFFFFF" />
    <path
        d="M38.0039 29.4054H35.9702L36.3785 27.0119H35.1026L34.6943 29.4054H32.6528L33.7423 22.9537C33.7898 22.6285 33.9349 22.3254 34.1584 22.084C34.2531 21.9812 34.368 21.899 34.4961 21.8427C34.6241 21.7865 34.7625 21.7572 34.9024 21.7569H38.3415C38.468 21.7492 38.5943 21.7755 38.7072 21.833C38.8201 21.8905 38.9155 21.9772 38.9834 22.084C39.1298 22.3493 39.1698 22.6601 39.0953 22.9537L38.0039 29.4054ZM35.825 22.7108L35.2577 26.0581H36.5336L37.1009 22.7108H35.825Z"
        fill="#FFFFFF" />
    <path
        d="M41.6806 23.2866L40.7776 28.5631H41.7964L42.7013 23.2866H44.5799L43.7456 28.2086C43.6986 28.5339 43.5534 28.8372 43.3295 29.0783C43.235 29.1813 43.1201 29.2636 42.992 29.3199C42.8639 29.3762 42.7255 29.4053 42.5855 29.4054H39.7C39.5734 29.4135 39.4469 29.3875 39.3339 29.3299C39.221 29.2723 39.1257 29.1854 39.0581 29.0783C38.9115 28.8131 38.8715 28.5022 38.9462 28.2086L39.7883 23.2866H41.6806Z"
        fill="#FFFFFF" />
    <path
        d="M45.8735 29.4053C45.7467 29.4132 45.6201 29.387 45.5068 29.3294C45.3936 29.2719 45.2979 29.1851 45.2297 29.0782C45.0847 28.8124 45.0455 28.5019 45.1198 28.2085L45.8107 24.1287H44.8979L45.0393 23.2865H45.9521L46.2092 21.7568H48.0976L47.8404 23.2865H48.7611L48.6197 24.1287H47.6991L46.9453 28.563H47.8659L47.7246 29.4053H45.8735Z"
        fill="#FFFFFF" />
    <path
        d="M49.3381 24.2403C49.3733 23.982 49.4894 23.7413 49.6699 23.5528C49.7444 23.4705 49.8352 23.4044 49.9365 23.3585C50.0378 23.3127 50.1475 23.2882 50.2587 23.2865H53.5212C53.621 23.281 53.7205 23.303 53.8087 23.3499C53.897 23.3969 53.9706 23.4671 54.0218 23.5528C54.1355 23.7631 54.1683 24.0076 54.114 24.2403L53.4505 28.2085C53.4028 28.534 53.257 28.8372 53.0324 29.0781C52.9381 29.1813 52.8232 29.2637 52.6951 29.3201C52.567 29.3764 52.4285 29.4054 52.2885 29.4052H49.4166C49.2901 29.4129 49.1638 29.3867 49.0509 29.3292C48.938 29.2716 48.8426 29.1849 48.7747 29.0781C48.6271 28.8132 48.5877 28.5016 48.6648 28.2085L49.3381 24.2403ZM51.252 24.1287L50.4963 28.563H51.515L52.2629 24.1287H51.252Z"
        fill="#FFFFFF" />
    <path
        d="M59.3845 29.4052H57.3469L57.0545 27.0118H56.4793L56.071 29.4052H54.0295L55.3231 21.7666H59.7221C59.8482 21.7585 59.974 21.7846 60.0864 21.8422C60.1987 21.8998 60.2933 21.9867 60.3601 22.0937C60.5024 22.3603 60.5402 22.6703 60.4661 22.9633L59.9871 25.8229C59.9469 26.1031 59.8362 26.3686 59.6652 26.5946C59.5173 26.7861 59.3104 26.9238 59.0763 26.9863L59.3845 29.4052ZM57.2056 22.7106L56.6383 26.0579H57.9064L58.4717 22.7106H57.2056Z"
        fill="#FFFFFF" />
    <path
        d="M61.0059 24.2403C61.0417 23.9818 61.1585 23.7412 61.3396 23.5528C61.4141 23.4704 61.5049 23.4042 61.6062 23.3584C61.7076 23.3125 61.8173 23.2881 61.9285 23.2865H65.1988C65.2987 23.281 65.3981 23.303 65.4863 23.3499C65.5746 23.3969 65.6483 23.4671 65.6994 23.5528C65.8131 23.7631 65.846 24.0076 65.7916 24.2403L65.2027 27.7208H62.3093L62.1582 28.563H65.0555L64.9142 29.4052H61.0962C60.9697 29.4131 60.8433 29.387 60.7303 29.3294C60.6174 29.2719 60.5221 29.1851 60.4543 29.0781C60.3077 28.8129 60.2677 28.502 60.3424 28.2085L61.0059 24.2403ZM62.9198 24.1287L62.4507 26.8551H63.4694L63.9405 24.1287H62.9198Z"
        fill="#FFFFFF" />
    <path
        d="M70.6031 29.4053H68.7245L69.6275 24.1288H68.6087L67.7058 29.4053H65.8174L66.8636 23.2866H70.8858C70.9857 23.2807 71.0853 23.3025 71.1736 23.3495C71.2619 23.3965 71.3355 23.4669 71.3863 23.553C71.5008 23.763 71.5343 24.0075 71.4805 24.2404L70.6031 29.4053Z"
        fill="#FFFFFF" />
    <path
        d="M72.7993 29.4052C72.6728 29.413 72.5465 29.3867 72.4336 29.3292C72.3207 29.2717 72.2253 29.185 72.1574 29.0782C72.0115 28.8127 71.9722 28.5018 72.0475 28.2085L72.7385 24.1287H71.8257L71.967 23.2865H72.8739L73.1311 21.7568H75.0331L74.776 23.2865H75.6986L75.5573 24.1287H74.6347L73.8829 28.563H74.8035L74.6621 29.4052H72.7993Z"
        fill="#FFFFFF" />
    <path d="M77.4872 29.4052H75.9541L76.1681 28.1301H77.7012L77.4872 29.4052Z" fill="#FFFFFF" />
    <path
        d="M78.5667 24.2403C78.6019 23.982 78.718 23.7413 78.8985 23.5528C78.9731 23.4706 79.0639 23.4045 79.1652 23.3587C79.2665 23.3129 79.3761 23.2883 79.4873 23.2865H82.7478C82.8477 23.281 82.9471 23.303 83.0353 23.3499C83.1236 23.3969 83.1972 23.4671 83.2484 23.5528C83.3637 23.7626 83.3966 24.0077 83.3406 24.2403L82.7517 27.7208H79.8701L79.7209 28.563H82.6183L82.4769 29.4052H78.6492C78.5223 29.4131 78.3957 29.3869 78.2825 29.3294C78.1692 29.2718 78.0735 29.1851 78.0053 29.0781C77.8603 28.8123 77.8211 28.5018 77.8954 28.2085L78.5667 24.2403ZM80.4806 24.1287L80.0114 26.855H81.0302L81.5111 24.1287H80.4806Z"
        fill="#FFFFFF" />
    <path
        d="M84.1159 24.2403C84.1511 23.982 84.2672 23.7413 84.4477 23.5528C84.5223 23.4706 84.6131 23.4045 84.7144 23.3587C84.8157 23.3129 84.9254 23.2883 85.0366 23.2865H88.297C88.3969 23.281 88.4963 23.303 88.5846 23.3499C88.6728 23.3969 88.7465 23.4671 88.7976 23.5528C88.9114 23.7631 88.9442 24.0076 88.8899 24.2403L88.301 27.7208H85.4174L85.2662 28.563H88.1655L88.0222 29.4052H84.1945C84.0679 29.4129 83.9416 29.3867 83.8287 29.3292C83.7158 29.2716 83.6205 29.1849 83.5526 29.0781C83.4049 28.8132 83.3655 28.5016 83.4426 28.2085L84.1159 24.2403ZM86.0298 24.1287L85.5587 26.8551H86.5795L87.0486 24.1287H86.0298Z"
        fill="#FFFFFF" />
    <defs>
        <radialGradient id="paint0_radial" cx="0" cy="0" r="1" gradientUnits="userSpaceOnUse"
            gradientTransform="translate(-7.92942 -5.32615) scale(93.1347 73.4137)">
            <stop stop-color="#FFFF00" />
            <stop offset="1" stop-color="#FF0000" />
        </radialGradient>
    </defs>
</svg>