<svg width="17" height="10" viewBox="0 0 17 10" fill="none" xmlns="http://www.w3.org/2000/svg">
    <path
        d="M8.72271 9.81528C8.45522 9.81589 8.19599 9.70616 7.99002 9.50512L1.12109 2.76257C0.887297 2.53368 0.740274 2.20476 0.712364 1.84818C0.684453 1.4916 0.777942 1.13656 0.972262 0.861175C1.16658 0.585787 1.44582 0.412606 1.74854 0.37973C2.05126 0.346853 2.35267 0.456975 2.58646 0.685869L8.72271 6.72719L14.859 0.901631C14.9761 0.789616 15.1108 0.705966 15.2554 0.655489C15.4001 0.605011 15.5517 0.588703 15.7017 0.6075C15.8518 0.626297 15.9971 0.679829 16.1295 0.765019C16.2619 0.85021 16.3787 0.965379 16.4731 1.10391C16.578 1.24256 16.6574 1.40523 16.7064 1.58171C16.7554 1.7582 16.7729 1.9447 16.7578 2.12953C16.7428 2.31436 16.6955 2.49354 16.6189 2.65584C16.5424 2.81814 16.4382 2.96007 16.3129 3.07273L9.44394 9.58603C9.23205 9.75529 8.97812 9.83601 8.72271 9.81528Z"
        fill="#B5190F" />
</svg>