<svg width="15" height="17" viewBox="0 0 15 17" fill="none" xmlns="http://www.w3.org/2000/svg">
    <path
        d="M3.3335 5.8335H5.00016V7.50016H3.3335V5.8335ZM3.3335 9.16683H5.00016V10.8335H3.3335V9.16683ZM6.66683 5.8335H8.3335V7.50016H6.66683V5.8335ZM6.66683 9.16683H8.3335V10.8335H6.66683V9.16683ZM10.0002 5.8335H11.6668V7.50016H10.0002V5.8335ZM10.0002 9.16683H11.6668V10.8335H10.0002V9.16683Z"
        fill="#B5190F" />
    <path
        d="M1.66667 16.6667H13.3333C14.2525 16.6667 15 15.9192 15 15V3.33333C15 2.41417 14.2525 1.66667 13.3333 1.66667H11.6667V0H10V1.66667H5V0H3.33333V1.66667H1.66667C0.7475 1.66667 0 2.41417 0 3.33333V15C0 15.9192 0.7475 16.6667 1.66667 16.6667ZM13.3333 5L13.3342 15H1.66667V5H13.3333Z"
        fill="#B5190F" />
</svg>