<svg width="17" height="17" viewBox="0 0 17 17" fill="none" xmlns="http://www.w3.org/2000/svg">
    <path
        d="M10.4956 8.49758L16.5814 2.42595C16.8479 2.15945 16.9976 1.79799 16.9976 1.42109C16.9976 1.04419 16.8479 0.682734 16.5814 0.416228C16.3148 0.149722 15.9534 0 15.5765 0C15.1996 0 14.8381 0.149722 14.5716 0.416228L8.5 6.50201L2.42837 0.416228C2.16186 0.149722 1.8004 -2.8081e-09 1.42351 0C1.04661 2.8081e-09 0.685149 0.149722 0.418643 0.416228C0.152137 0.682734 0.00241535 1.04419 0.00241535 1.42109C0.00241535 1.79799 0.152137 2.15945 0.418643 2.42595L6.50443 8.49758L0.418643 14.5692C0.285989 14.7008 0.180699 14.8573 0.108847 15.0298C0.0369938 15.2023 0 15.3872 0 15.5741C0 15.7609 0.0369938 15.9459 0.108847 16.1184C0.180699 16.2908 0.285989 16.4474 0.418643 16.5789C0.550213 16.7116 0.706747 16.8169 0.879214 16.8887C1.05168 16.9606 1.23667 16.9976 1.42351 16.9976C1.61034 16.9976 1.79533 16.9606 1.9678 16.8887C2.14026 16.8169 2.2968 16.7116 2.42837 16.5789L8.5 10.4932L14.5716 16.5789C14.7032 16.7116 14.8597 16.8169 15.0322 16.8887C15.2047 16.9606 15.3897 16.9976 15.5765 16.9976C15.7633 16.9976 15.9483 16.9606 16.1208 16.8887C16.2933 16.8169 16.4498 16.7116 16.5814 16.5789C16.714 16.4474 16.8193 16.2908 16.8912 16.1184C16.963 15.9459 17 15.7609 17 15.5741C17 15.3872 16.963 15.2023 16.8912 15.0298C16.8193 14.8573 16.714 14.7008 16.5814 14.5692L10.4956 8.49758Z"
        fill="#B5190F" />
</svg>