<svg width="20" height="22" viewBox="0 0 20 22" fill="none" xmlns="http://www.w3.org/2000/svg">
    <path
        d="M10.0116 8.15449C9.31083 8.15449 8.65458 8.42637 8.1577 8.92324C7.66317 9.42012 7.38895 10.0764 7.38895 10.7771C7.38895 11.4779 7.66317 12.1342 8.1577 12.6311C8.65458 13.1256 9.31083 13.3998 10.0116 13.3998C10.7124 13.3998 11.3686 13.1256 11.8655 12.6311C12.36 12.1342 12.6343 11.4779 12.6343 10.7771C12.6343 10.0764 12.36 9.42012 11.8655 8.92324C11.6228 8.67869 11.334 8.4848 11.0157 8.35283C10.6974 8.22085 10.3561 8.15344 10.0116 8.15449ZM19.6749 13.674L18.1421 12.3639C18.2147 11.9186 18.2522 11.4639 18.2522 11.0115C18.2522 10.5592 18.2147 10.1021 18.1421 9.65918L19.6749 8.34902C19.7907 8.2499 19.8736 8.11787 19.9125 7.97051C19.9514 7.82314 19.9446 7.66741 19.8929 7.52402L19.8718 7.46309C19.4499 6.28345 18.8178 5.19001 18.0061 4.23574L17.964 4.18652C17.8654 4.07063 17.734 3.98732 17.5872 3.94757C17.4403 3.90783 17.2849 3.91351 17.1413 3.96387L15.2382 4.64121C14.535 4.06465 13.7522 3.60996 12.9038 3.29356L12.5358 1.30371C12.5081 1.15381 12.4353 1.0159 12.3273 0.908315C12.2193 0.800726 12.0811 0.728547 11.9311 0.701367L11.8679 0.689648C10.6491 0.469336 9.36473 0.469336 8.14598 0.689648L8.0827 0.701367C7.93269 0.728547 7.79451 0.800726 7.6865 0.908315C7.57849 1.0159 7.50578 1.15381 7.47801 1.30371L7.1077 3.30293C6.2673 3.62186 5.48441 4.07544 4.78973 4.6459L2.87255 3.96387C2.72903 3.91311 2.57346 3.90722 2.42652 3.94699C2.27958 3.98676 2.14821 4.07031 2.04989 4.18652L2.0077 4.23574C1.19745 5.19103 0.565525 6.2842 0.142077 7.46309L0.120983 7.52402C0.0155143 7.81699 0.102233 8.14512 0.338952 8.34902L1.89051 9.67324C1.81786 10.1139 1.7827 10.5639 1.7827 11.0092C1.7827 11.4592 1.81786 11.9092 1.89051 12.3451L0.343639 13.6693C0.227848 13.7685 0.144975 13.9005 0.106039 14.0479C0.0671037 14.1952 0.0739509 14.351 0.12567 14.4943L0.146764 14.5553C0.570983 15.7342 1.19676 16.824 2.01239 17.7826L2.05458 17.8318C2.15314 17.9477 2.28451 18.031 2.43136 18.0708C2.57822 18.1105 2.73367 18.1049 2.87723 18.0545L4.79442 17.3725C5.49286 17.9467 6.27098 18.4014 7.11239 18.7154L7.4827 20.7147C7.51046 20.8646 7.58318 21.0025 7.69119 21.11C7.79919 21.2176 7.93738 21.2898 8.08739 21.317L8.15067 21.3287C9.38141 21.5502 10.6418 21.5502 11.8725 21.3287L11.9358 21.317C12.0858 21.2898 12.224 21.2176 12.332 21.11C12.44 21.0025 12.5128 20.8646 12.5405 20.7147L12.9085 18.7248C13.7569 18.4061 14.5397 17.9537 15.2429 17.3771L17.146 18.0545C17.2895 18.1053 17.4451 18.1111 17.592 18.0714C17.739 18.0316 17.8703 17.9481 17.9686 17.8318L18.0108 17.7826C18.8265 16.8193 19.4522 15.7342 19.8765 14.5553L19.8975 14.4943C19.9983 14.2037 19.9116 13.8779 19.6749 13.674ZM10.0116 14.8975C7.73583 14.8975 5.8913 13.0529 5.8913 10.7771C5.8913 8.50137 7.73583 6.65684 10.0116 6.65684C12.2874 6.65684 14.1319 8.50137 14.1319 10.7771C14.1319 13.0529 12.2874 14.8975 10.0116 14.8975Z"
        fill="#B5190F" />
</svg>