<svg width="30" height="30" viewBox="0 0 30 30" fill="none" xmlns="http://www.w3.org/2000/svg">
    <circle cx="15" cy="15" r="15" fill="#B5190F" />
    <path
        d="M14.998 12.4989C13.6208 12.4989 12.497 13.6228 12.497 15C12.497 16.3772 13.6208 17.5011 14.998 17.5011C16.3751 17.5011 17.499 16.3772 17.499 15C17.499 13.6228 16.3751 12.4989 14.998 12.4989ZM22.4992 15C22.4992 13.9643 22.5085 12.938 22.4504 11.9042C22.3922 10.7033 22.1183 9.63763 21.2402 8.75953C20.3603 7.87956 19.2964 7.60751 18.0956 7.54934C17.06 7.49118 16.0337 7.50056 14.9999 7.50056C13.9642 7.50056 12.9379 7.49118 11.9041 7.54934C10.7033 7.60751 9.63759 7.88144 8.75951 8.75953C7.87956 9.6395 7.6075 10.7033 7.54934 11.9042C7.49118 12.9399 7.50056 13.9662 7.50056 15C7.50056 16.0338 7.49118 17.062 7.54934 18.0958C7.6075 19.2967 7.88143 20.3624 8.75951 21.2405C9.63946 22.1204 10.7033 22.3925 11.9041 22.4507C12.9398 22.5088 13.9661 22.4994 14.9999 22.4994C16.0355 22.4994 17.0618 22.5088 18.0956 22.4507C19.2964 22.3925 20.3621 22.1186 21.2402 21.2405C22.1202 20.3605 22.3922 19.2967 22.4504 18.0958C22.5104 17.062 22.4992 16.0357 22.4992 15ZM14.998 18.8482C12.8685 18.8482 11.1498 17.1296 11.1498 15C11.1498 12.8704 12.8685 11.1518 14.998 11.1518C17.1275 11.1518 18.8461 12.8704 18.8461 15C18.8461 17.1296 17.1275 18.8482 14.998 18.8482ZM19.0037 11.8929C18.5065 11.8929 18.105 11.4914 18.105 10.9942C18.105 10.497 18.5065 10.0954 19.0037 10.0954C19.5009 10.0954 19.9025 10.497 19.9025 10.9942C19.9026 11.1122 19.8795 11.2292 19.8343 11.3383C19.7892 11.4474 19.723 11.5465 19.6396 11.63C19.5561 11.7135 19.4569 11.7797 19.3478 11.8248C19.2387 11.8699 19.1218 11.893 19.0037 11.8929Z"
        fill="white" />
</svg>