<svg width="13" height="13" viewBox="0 0 13 13" fill="none" xmlns="http://www.w3.org/2000/svg">
    <path
        d="M12.5117 10.1409L9.63233 7.52292C9.49622 7.39921 9.31736 7.33324 9.13352 7.33892C8.94968 7.3446 8.77524 7.4215 8.64704 7.55338L6.95199 9.29659C6.54399 9.21867 5.72374 8.96296 4.87941 8.12076C4.03508 7.27571 3.77937 6.45334 3.70358 6.04817L5.44537 4.35242C5.57741 4.2243 5.65442 4.04984 5.66011 3.86594C5.66579 3.68205 5.5997 3.50316 5.47583 3.36713L2.85854 0.488463C2.73461 0.352007 2.56237 0.269237 2.37839 0.25773C2.19442 0.246224 2.01321 0.306888 1.87324 0.426838L0.336161 1.74505C0.213698 1.86795 0.140604 2.03153 0.130744 2.20475C0.120119 2.38184 -0.0824639 6.57659 3.1702 9.83067C6.00779 12.6675 9.5622 12.8751 10.5411 12.8751C10.6842 12.8751 10.772 12.8708 10.7954 12.8694C10.9686 12.8597 11.1321 12.7863 11.2544 12.6633L12.5719 11.1255C12.6923 10.986 12.7534 10.8049 12.7422 10.621C12.7309 10.437 12.6482 10.2647 12.5117 10.1409Z"
        fill="white" />
</svg>