<svg xmlns="http://www.w3.org/2000/svg" viewBox="0 0 8.59 8.59"><defs><style>.cls-1{fill:#b5190f;}.cls-2{fill:none;}</style></defs><g id="Layer_2" data-name="Layer 2"><g id="Layer_1-2" data-name="Layer 1"><path class="cls-1" d="M3.51,5.53,3.08,8.26h-2l1.26-8H5A7.24,7.24,0,0,1,6.59.4a2.39,2.39,0,0,1,1.32.71,2,2,0,0,1,.42,1.33,2.76,2.76,0,0,1-.5,1.66A3.14,3.14,0,0,1,6.39,5.21L8.12,8.26H5.73L4.4,5.51l-.71,0Zm.25-1.62h.86A2.06,2.06,0,0,0,5.94,3.6a1,1,0,0,0,.27-.38,1.26,1.26,0,0,0,.1-.49A.64.64,0,0,0,6,2.12a2.17,2.17,0,0,0-1.07-.19H4.07Z"/><rect class="cls-2" width="8.59" height="8.59"/></g></g></svg>