<?xml version="1.0" standalone="no"?>
<!DOCTYPE svg PUBLIC "-//W3C//DTD SVG 20010904//EN"
 "http://www.w3.org/TR/2001/REC-SVG-20010904/DTD/svg10.dtd">
<svg version="1.0" xmlns="http://www.w3.org/2000/svg"
 width="700.000000pt" height="700.000000pt" viewBox="0 0 700.000000 700.000000"
 preserveAspectRatio="xMidYMid meet">
<g transform="translate(0.000000,700.000000) scale(0.100000,-0.100000)"
fill="#000000" stroke="none">
<path d="M1905 6767 c-5 -21 -38 -222 -50 -302 -25 -168 -36 -242 -40 -259 -2
-12 -7 -38 -10 -58 -3 -21 -7 -55 -10 -75 -3 -21 -7 -47 -10 -58 -2 -11 -13
-81 -25 -155 -11 -74 -23 -146 -25 -160 -2 -14 -6 -43 -9 -65 -4 -22 -8 -51
-11 -65 -2 -14 -7 -43 -10 -65 -3 -22 -14 -96 -26 -165 -11 -69 -22 -138 -25
-155 -2 -16 -6 -41 -9 -55 -4 -22 -10 -60 -20 -135 -2 -11 -6 -33 -9 -50 -2
-16 -7 -48 -11 -70 -3 -23 -7 -50 -9 -60 -5 -28 -15 -92 -22 -140 -3 -22 -9
-65 -14 -95 -5 -30 -12 -73 -15 -95 -3 -22 -10 -62 -15 -90 -6 -27 -12 -72
-15 -100 -3 -27 -8 -57 -10 -65 -3 -8 -7 -33 -10 -55 -11 -75 -15 -100 -20
-125 -2 -14 -6 -41 -9 -60 -5 -35 -33 -211 -41 -261 -3 -15 -8 -47 -11 -70 -3
-24 -8 -53 -10 -64 -3 -22 -10 -60 -19 -120 -25 -163 -37 -235 -41 -265 -3
-19 -7 -46 -10 -60 -2 -14 -16 -99 -30 -190 -14 -91 -27 -174 -29 -185 -3 -11
-7 -36 -9 -55 -7 -55 -47 -303 -61 -380 -3 -14 -7 -47 -10 -75 -4 -27 -8 -57
-10 -65 -2 -8 -7 -37 -10 -65 -4 -27 -8 -57 -10 -65 -3 -8 -7 -33 -10 -55 -4
-22 -17 -110 -31 -195 -13 -85 -27 -173 -30 -195 -4 -22 -8 -47 -9 -55 -2 -8
-8 -51 -15 -95 -7 -44 -13 -87 -15 -95 -3 -15 -13 -79 -21 -135 -3 -16 -9 -55
-14 -85 -5 -30 -12 -73 -15 -95 -3 -22 -8 -56 -11 -75 -4 -19 -8 -44 -9 -55
-2 -11 -6 -38 -9 -60 -4 -22 -9 -56 -12 -75 -3 -19 -9 -60 -14 -90 -5 -30 -12
-73 -15 -95 -3 -22 -10 -65 -15 -95 -5 -30 -12 -73 -15 -94 -3 -21 -7 -48 -10
-60 -2 -12 -7 -38 -10 -58 l-5 -38 815 0 814 0 5 33 c3 17 10 59 16 92 5 33
12 78 15 100 3 22 10 63 15 90 5 28 14 86 21 130 6 44 12 87 14 95 4 21 27
171 30 197 2 12 6 34 9 50 3 15 8 48 11 73 4 25 13 81 20 125 8 44 17 100 20
125 3 25 9 68 15 95 5 28 12 70 15 95 3 25 10 70 15 100 16 95 19 112 26 159
4 25 8 55 10 66 2 11 7 40 10 65 3 25 7 52 9 60 3 8 7 35 10 60 3 25 16 110
30 190 13 80 26 160 29 179 2 18 10 39 16 45 7 7 122 12 363 14 l353 4 64
-134 c79 -165 283 -588 465 -963 87 -179 171 -353 300 -620 37 -77 110 -227
161 -333 l93 -192 971 0 c533 0 970 3 970 8 0 4 -15 32 -33 62 -18 30 -49 84
-69 120 -20 36 -71 126 -113 200 -42 74 -93 164 -112 200 -20 36 -42 72 -49
81 -8 8 -14 18 -14 22 0 3 -93 170 -206 369 -114 200 -218 383 -232 408 -13
25 -62 110 -107 190 -229 404 -374 660 -397 700 -14 25 -35 61 -47 81 -25 43
-25 43 74 84 155 63 401 206 551 321 237 181 455 423 616 684 125 203 248 536
282 763 3 20 9 54 12 75 3 20 8 48 10 62 3 14 7 138 9 275 4 264 -4 353 -46
519 -65 254 -197 504 -345 652 -218 217 -517 393 -817 479 -90 26 -333 76
-432 90 -23 3 -50 7 -60 9 -11 2 -63 9 -115 15 -52 7 -108 14 -125 16 -16 2
-59 6 -95 10 -36 3 -94 8 -130 12 -36 3 -660 8 -1387 9 l-1323 4 -5 -23z
m2375 -1342 c102 -6 135 -10 190 -21 19 -4 41 -8 49 -10 87 -17 205 -54 321
-100 101 -40 194 -130 249 -240 31 -64 60 -188 55 -245 -1 -19 -5 -72 -8 -119
-16 -227 -126 -468 -275 -602 -40 -36 -261 -158 -286 -158 -4 0 -21 -6 -38
-14 -37 -17 -203 -68 -232 -71 -11 -2 -47 -8 -80 -14 -105 -20 -213 -27 -333
-23 -64 2 -277 5 -473 5 -315 1 -356 3 -353 17 4 22 23 139 29 180 3 19 7 46
10 60 3 14 7 41 9 60 5 42 12 87 31 200 8 47 17 102 20 123 8 56 14 99 19 127
3 14 7 41 10 60 7 47 46 299 51 330 2 14 18 115 36 225 17 110 32 207 34 215
2 13 57 15 415 17 227 1 415 4 417 7 2 2 12 2 21 0 9 -1 60 -5 112 -9z"/>
</g>
</svg>
